<?xml version="1.0" standalone="no"?>
<!DOCTYPE svg PUBLIC "-//W3C//DTD SVG 20010904//EN"
 "http://www.w3.org/TR/2001/REC-SVG-20010904/DTD/svg10.dtd">
<svg version="1.0" xmlns="http://www.w3.org/2000/svg"
 width="40.000000pt" height="40.000000pt" viewBox="0 0 40.000000 40.000000"
 preserveAspectRatio="xMidYMid meet">
<metadata>
Created by potrace 1.16, written by Peter Selinger 2001-2019
</metadata>
<g transform="translate(0.000000,40.000000) scale(0.006981,-0.006908)"
fill="#000000" stroke="none">
<path d="M2790 4590 c-54 -14 -126 -47 -174 -80 -24 -16 -65 -34 -91 -40 -113
-25 -236 -114 -303 -218 l-34 -55 -64 7 c-58 6 -66 4 -87 -16 -13 -13 -52 -92
-87 -175 l-65 -153 -46 0 c-58 0 -64 -7 -173 -190 -80 -134 -86 -148 -86 -200
0 -30 -25 -532 -55 -1114 -30 -583 -53 -1067 -50 -1076 3 -10 17 -22 31 -28
31 -15 2739 -17 2777 -3 13 5 27 17 31 26 3 9 -5 229 -18 488 -14 260 -39 762
-57 1117 l-32 645 -84 145 c-106 181 -114 190 -170 190 -38 0 -46 4 -62 33
-42 70 -78 110 -137 150 -55 38 -64 48 -79 97 -34 111 -101 198 -199 262 -66
42 -168 78 -225 78 -25 0 -51 10 -85 35 -76 54 -148 77 -251 81 -49 2 -106 -1
-125 -6z m582 -263 c70 -34 130 -92 162 -155 l25 -49 -79 -1 c-209 -3 -387
-156 -419 -360 -6 -35 -8 -68 -6 -75 2 -7 6 -33 9 -59 l6 -48 -191 0 -191 0 7
264 7 264 -23 15 c-14 9 -82 22 -164 32 -167 19 -195 24 -195 35 0 5 22 31 48
58 46 47 106 85 162 103 14 4 196 7 405 6 l380 -2 57 -28z m-1017 -272 c110
-14 206 -25 213 -25 14 0 15 -68 5 -298 l-6 -152 -334 0 c-183 0 -333 4 -333
8 0 7 196 467 206 484 8 12 28 10 249 -17z m1274 -76 c65 -28 104 -61 140
-117 44 -70 58 -142 41 -220 l-13 -62 -299 0 -298 0 -11 28 c-6 15 -11 57 -12
93 -1 181 154 318 343 303 35 -3 85 -14 109 -25z m465 -591 c4 -40 13 -210 21
-378 42 -845 75 -1494 80 -1567 l6 -83 -1307 0 -1306 0 6 93 c4 50 27 495 51
987 25 492 47 923 51 958 l6 62 1193 0 1193 0 6 -72z"/>
<path d="M2419 3340 c-73 -22 -119 -87 -119 -167 0 -40 6 -59 30 -92 17 -23
42 -47 55 -53 l25 -11 0 -287 c0 -162 5 -312 11 -346 33 -180 183 -338 359
-378 87 -20 143 -20 230 0 173 39 322 193 359 372 6 31 11 172 11 345 l1 292
32 20 c80 51 102 153 50 233 -30 46 -90 82 -136 82 -33 0 -94 -24 -120 -48
-29 -26 -57 -87 -57 -123 0 -48 36 -115 76 -140 l35 -21 -3 -322 -3 -321 -26
-55 c-34 -72 -106 -145 -177 -178 -50 -24 -69 -27 -157 -27 -87 0 -107 3 -155
26 -70 33 -146 109 -177 177 -36 77 -43 155 -38 404 2 122 4 240 5 260 0 31 5
40 29 53 63 32 95 127 67 199 -34 88 -120 133 -207 106z"/>
</g>
</svg>
